<?xml version="1.0" standalone="no"?>
<!DOCTYPE svg PUBLIC "-//W3C//DTD SVG 20010904//EN"
 "http://www.w3.org/TR/2001/REC-SVG-20010904/DTD/svg10.dtd">
<svg version="1.0" xmlns="http://www.w3.org/2000/svg"
 width="1911.000000pt" height="926.000000pt" viewBox="0 0 1911.000000 926.000000"
 preserveAspectRatio="xMidYMid meet">
<metadata>
Created by potrace 1.16, written by Peter Selinger 2001-2019
</metadata>
<g transform="translate(0.000000,926.000000) scale(0.100000,-0.100000)"
fill="#000000" stroke="none">
<path d="M0 4630 l0 -4630 9555 0 9555 0 0 4630 0 4630 -9555 0 -9555 0 0
-4630z m10159 3913 c22 -45 24 -47 34 -25 14 30 20 28 41 -14 l17 -37 28 27
29 28 11 -64 c6 -35 13 -88 17 -118 l6 -55 -57 -32 c-31 -18 -65 -33 -75 -33
-10 0 -43 14 -74 32 -39 23 -56 38 -56 53 0 11 9 76 20 145 11 69 20 128 20
133 0 20 19 2 39 -40z m-1275 16 l26 -20 26 20 c55 43 104 10 90 -60 -4 -22 1
-30 32 -50 47 -31 47 -56 2 -87 -27 -18 -34 -29 -32 -51 4 -38 -14 -81 -35
-81 -10 0 -33 9 -51 20 l-33 20 -26 -20 c-53 -42 -98 -15 -91 55 3 29 -2 37
-32 57 -45 31 -45 56 2 87 31 20 36 28 32 50 -14 70 35 103 90 60z m2646
-2435 c29 -14 72 -59 90 -93 7 -13 12 -45 12 -71 0 -100 -82 -182 -182 -182
-70 0 -134 42 -170 111 -17 33 -15 112 3 148 21 40 80 91 115 99 15 3 32 7 37
9 16 4 68 -7 95 -21z m-10045 -2531 c-11 -3 -26 -10 -32 -15 -16 -13 -17 -64
-2 -74 7 -4 9 -22 6 -47 -6 -44 6 -77 27 -77 7 0 27 7 44 15 29 15 31 19 32
78 3 129 0 118 29 102 58 -30 101 -103 101 -173 0 -88 -83 -179 -173 -189
-177 -20 -285 194 -164 326 27 30 94 61 127 60 21 -1 21 -2 5 -6z m4405 -8
l30 -15 -26 -68 c-14 -37 -37 -100 -52 -140 -14 -40 -29 -69 -33 -65 -9 9 -99
249 -99 263 0 35 127 52 180 25z m100 -95 c64 -125 -33 -280 -175 -280 -141 0
-240 159 -175 280 17 32 19 33 26 15 5 -11 29 -76 55 -145 l46 -125 43 0 44 0
55 148 c30 81 56 147 58 147 1 0 12 -18 23 -40z m-248 -1127 c20 -18 25 -78 7
-88 -7 -5 -4 -14 7 -26 16 -18 16 -19 -4 -19 -11 0 -24 5 -27 10 -3 6 -17 10
-31 10 -31 0 -64 33 -64 65 0 54 71 85 112 48z m8640 0 c20 -18 25 -78 7 -88
-7 -5 -4 -14 7 -26 16 -18 16 -19 -4 -19 -11 0 -24 5 -27 10 -3 6 -17 10 -31
10 -31 0 -64 33 -64 65 0 54 71 85 112 48z m165 -1610 c108 -51 130 -206 43
-293 -135 -135 -365 -8 -319 177 30 116 161 171 276 116z"/>
</g>
</svg>
