<svg width="28" height="28" viewBox="0 0 28 28" fill="none" xmlns="http://www.w3.org/2000/svg">
<g clip-path="url(#clip0_110_220)">
<path d="M0 24.3896C0 26.3838 1.61645 28 3.61036 28H24.3895C26.3838 28 28 26.3835 28 24.3896V3.61047C28 1.61623 26.3835 0 24.3896 0H3.61047C1.61623 0 0 1.61645 0 3.61036V24.3895V24.3896Z" fill="#563D7C"/>
<path d="M11.6111 12.3854V8.42023H15.1014C15.4339 8.42023 15.7544 8.44791 16.063 8.50336C16.3717 8.5587 16.6448 8.65758 16.8822 8.80009C17.1196 8.94261 17.3096 9.14047 17.4521 9.39367C17.5945 9.64698 17.6658 9.9715 17.6658 10.3671C17.6658 11.0795 17.4521 11.594 17.0246 11.9105C16.5973 12.2271 16.0512 12.3854 15.3863 12.3854H11.6111ZM7.8833 5.52344V22.4766H16.0987C16.8585 22.4766 17.5985 22.3816 18.3188 22.1916C19.039 22.0017 19.6801 21.7089 20.242 21.3131C20.8039 20.9174 21.2511 20.4069 21.5835 19.7817C21.916 19.1564 22.0821 18.4163 22.0821 17.5616C22.0821 16.501 21.8249 15.5948 21.3105 14.843C20.796 14.091 20.0164 13.5647 18.9716 13.2639C19.7315 12.8999 20.3053 12.4329 20.6932 11.863C21.0809 11.2932 21.2748 10.5809 21.2748 9.72606C21.2748 8.93463 21.1443 8.26984 20.8831 7.73161C20.6219 7.19348 20.2538 6.76211 19.7789 6.43759C19.3041 6.11308 18.7343 5.87956 18.0694 5.73716C17.4046 5.59464 16.6685 5.52344 15.8612 5.52344H7.8833ZM11.6111 19.5798V14.926H15.6712C16.4785 14.926 17.1276 15.1119 17.6183 15.484C18.109 15.856 18.3544 16.4772 18.3544 17.3479C18.3544 17.7912 18.2792 18.1552 18.1288 18.4401C17.9784 18.725 17.7766 18.9506 17.5233 19.1168C17.2701 19.283 16.9772 19.4017 16.6448 19.473C16.3123 19.5441 15.9641 19.5798 15.6 19.5798H11.6111Z" fill="white"/>
</g>
<defs>
<clipPath id="clip0_110_220">
<rect width="28" height="28" fill="white"/>
</clipPath>
</defs>
</svg>
