<svg width="31" height="33" viewBox="0 0 31 33" fill="none" xmlns="http://www.w3.org/2000/svg">
<path d="M1.29165 1.37471H29.7084V30.7939H1.29165V1.37471ZM0 32.1687H31V0H0V32.1687ZM20.8992 13.1974C19.8787 13.1974 19.53 13.7473 19.53 14.2009C19.53 14.6958 19.7625 15.0395 21.1317 15.7956C23.1596 16.8404 23.7925 17.8439 23.7925 19.3149C23.7925 21.5145 22.2167 22.6967 20.0854 22.6967C18.9617 22.6967 17.9929 22.4493 17.4375 22.1056C17.3471 22.0644 17.3342 21.9957 17.3342 21.8857V19.8648C17.3342 19.7273 17.3988 19.6861 17.4892 19.7548C18.303 20.3185 19.2329 20.5659 20.0854 20.5659C21.1059 20.5659 21.5321 20.1123 21.5321 19.4936C21.5321 18.9987 21.235 18.5588 19.9304 17.8439C18.0962 16.9091 17.3342 15.9606 17.3342 14.3797C17.3342 12.6062 18.6388 11.1353 20.8992 11.1353C22.01 11.1353 22.785 11.314 23.2113 11.5202C23.3146 11.5889 23.3404 11.6989 23.3404 11.7951V13.6785C23.3404 13.7884 23.2758 13.8572 23.1466 13.8159C22.5783 13.4311 21.7387 13.1974 20.8992 13.1974ZM9.79082 14.8333C10.0879 14.8608 10.3204 14.8608 10.8371 14.8608C12.3484 14.8608 13.7692 14.2972 13.7692 12.1114C13.7692 10.3655 12.7488 9.48562 11.0309 9.48562C10.5142 9.48562 10.0233 9.51311 9.79082 9.52686V14.8333ZM7.4917 7.53349C7.4917 7.43727 7.67256 7.36849 7.77583 7.36849C8.60254 7.32725 9.82962 7.29976 11.1083 7.29976C14.6863 7.29976 16.0812 9.38934 16.0812 12.0563C16.0812 15.5481 13.7046 17.0466 10.7854 17.0466C10.2946 17.0466 10.1267 17.0191 9.7779 17.0191V22.2981C9.7779 22.408 9.73916 22.463 9.62293 22.463H7.64668C7.54336 22.463 7.49165 22.4218 7.49165 22.2981L7.4917 7.53349Z" fill="#31C5F0"/>
</svg>
