<svg width="29" height="28" viewBox="0 0 29 28" fill="none" xmlns="http://www.w3.org/2000/svg">
<path d="M7.48608 3.74664C7.48608 1.81892 8.02228 0.770231 10.9827 0.270861C12.9926 -0.0687498 15.5697 -0.111201 17.9735 0.270861C19.8722 0.572973 21.4702 1.93637 21.4702 3.74664V10.1066C21.4702 11.9719 19.9187 13.4998 17.9735 13.4998H10.9827C8.61014 13.4998 6.61052 15.4501 6.61052 17.6548V20.7062H4.20681C2.17358 20.7062 0.989776 19.2929 0.492477 17.3152C-0.17832 14.6583 -0.149844 13.0753 0.492477 10.5308C1.04937 8.311 2.82882 7.13977 4.8622 7.13977H14.4794V6.29075H7.48594L7.48608 3.74664Z" fill="url(#paint0_linear_110_232)"/>
<path d="M21.4704 24.0997C21.4704 26.0274 19.7349 27.0038 17.9737 27.4907C15.324 28.2248 13.1974 28.1124 10.9829 27.4907C9.13342 26.9713 7.48623 25.9101 7.48623 24.0997V17.7397C7.48623 15.9094 9.06884 14.3465 10.9829 14.3465H17.9737C20.3023 14.3465 22.3459 12.4064 22.3459 10.1066V7.14005H24.9672C27.003 7.14005 27.9615 8.59826 28.4638 10.5311C29.1631 13.2154 29.1942 15.2229 28.4638 17.3155C27.7568 19.3481 27.0004 20.7065 24.9672 20.7065H14.4795V21.5555H21.4704V24.0997Z" fill="url(#paint1_linear_110_232)"/>
<path d="M9.23441 3.32467C9.23441 2.62054 9.81978 2.05113 10.5452 2.05113C11.2678 2.05113 11.8559 2.6204 11.8559 3.32467C11.8559 4.02653 11.2679 4.59566 10.5452 4.59566C9.82007 4.59566 9.23441 4.02639 9.23441 3.32467ZM17.1005 24.5218C17.1005 23.8199 17.6885 23.2508 18.4113 23.2508C19.1364 23.2508 19.722 23.82 19.722 24.5218C19.722 25.2259 19.1367 25.7953 18.4113 25.7953C17.6886 25.7953 17.1005 25.226 17.1005 24.5218Z" fill="white"/>
<defs>
<linearGradient id="paint0_linear_110_232" x1="29.0002" y1="10.8849" x2="0.000360705" y2="10.646" gradientUnits="userSpaceOnUse">
<stop stop-color="#366A96"/>
<stop offset="1" stop-color="#3679B0"/>
</linearGradient>
<linearGradient id="paint1_linear_110_232" x1="28.9998" y1="14.0001" x2="-28.2899" y2="14.0001" gradientUnits="userSpaceOnUse">
<stop stop-color="#FFC836"/>
<stop offset="1" stop-color="#FFE873"/>
</linearGradient>
</defs>
</svg>
