<svg width="32" height="29" viewBox="0 0 32 29" fill="none" xmlns="http://www.w3.org/2000/svg">
<path d="M16 18C17.6569 18 19 16.6569 19 15C19 13.3431 17.6569 12 16 12C14.3431 12 13 13.3431 13 15C13 16.6569 14.3431 18 16 18Z" fill="#00D8FF"/>
<path d="M16 20.9906C12.5659 21.0733 9.14034 20.6124 5.85143 19.6251C4.33214 19.1455 2.91513 18.3902 1.672 17.3971C1.19763 17.0578 0.802596 16.6204 0.513991 16.1148C0.225386 15.6092 0.0500453 15.0475 0 14.4681C0 12.5871 2.07543 10.7437 5.552 9.53757C8.92884 8.46879 12.4571 7.95081 16 8.00367C19.4957 7.95505 22.9766 8.46367 26.3109 9.51026C27.774 9.9747 29.143 10.6936 30.3543 11.6336C30.8205 11.957 31.2097 12.3786 31.4941 12.8684C31.7785 13.3583 31.9512 13.9044 32 14.4681C32 16.423 29.68 18.4041 25.9429 19.6353C22.7176 20.5904 19.3644 21.0475 16 20.9906V20.9906ZM16 9.36461C12.6104 9.31949 9.23523 9.81192 6.00114 10.8234C2.80114 11.9351 1.36686 13.4554 1.36686 14.4647C1.36686 15.5207 2.90857 17.1809 6.29371 18.3336C9.44008 19.2733 12.7161 19.7107 16 19.6296C19.2187 19.6869 22.4273 19.2533 25.5143 18.3438C29.0286 17.1843 30.6286 15.5218 30.6286 14.4681C30.5709 14.1065 30.4386 13.7607 30.2399 13.4527C30.0412 13.1446 29.7805 12.8809 29.4743 12.6782C28.3906 11.8443 27.1677 11.2071 25.8617 10.7961C22.672 9.79901 19.3428 9.31576 16 9.36461V9.36461Z" fill="#00D8FF"/>
<path d="M9.39507 28.9992C8.85144 29.0117 8.31422 28.8799 7.83817 28.6172C6.1694 27.6553 5.59138 24.8813 6.29176 21.1955C7.06397 17.6682 8.40197 14.2888 10.2539 11.1885V11.1885C11.9911 8.07804 14.2152 5.26541 16.8416 2.85721C17.999 1.80294 19.3342 0.961939 20.7852 0.373205C21.31 0.127412 21.8825 0 22.4621 0C23.0417 0 23.6142 0.127412 24.139 0.373205C25.8742 1.3724 26.4487 4.43285 25.6388 8.3609C24.8428 11.6969 23.5395 14.8911 21.7745 17.8323C20.0985 20.9059 17.9445 23.6941 15.3931 26.0925C14.1937 27.1881 12.8018 28.0523 11.2876 28.6417C10.6814 28.8665 10.0416 28.9874 9.39507 28.9992V28.9992ZM11.4612 11.8802C9.69468 14.849 8.41229 18.08 7.6622 21.4517C7.01777 24.8464 7.63657 26.8878 8.53621 27.4072C9.46849 27.9464 11.7316 27.4352 14.4795 25.0362C16.9151 22.7385 18.971 20.0696 20.5707 17.1289C22.2616 14.3171 23.5117 11.2631 24.2777 8.07326C25.0398 4.37579 24.3814 2.11189 23.4468 1.57386C23.0965 1.43974 22.7222 1.3797 22.3475 1.39754C21.9728 1.41538 21.6059 1.51071 21.2699 1.67751C19.9784 2.21012 18.7909 2.96624 17.7623 3.91113C15.2529 6.21787 13.1285 8.9105 11.4694 11.8872L11.4612 11.8802Z" fill="#00D8FF"/>
<path d="M22.5816 28.9992C21.0054 28.9992 19.0034 28.0434 16.9188 26.2473C14.251 23.8151 11.9934 20.9665 10.2334 17.812V17.812C8.40791 14.7517 7.08286 11.4184 6.30849 7.93849C5.97267 6.40749 5.91044 4.82896 6.1247 3.2762C6.17423 2.70018 6.34928 2.14206 6.63751 1.64121C6.92574 1.14035 7.32012 0.708947 7.79284 0.37742C9.52264 -0.626137 12.4576 0.405394 15.4531 3.06989C17.9432 5.42689 20.0578 8.1526 21.7231 11.152C23.5475 14.1409 24.8865 17.4012 25.6899 20.8111C26.0402 22.3982 26.0942 24.0366 25.8493 25.6435C25.791 26.2361 25.6055 26.8091 25.3056 27.3231C25.0056 27.8371 24.5982 28.2801 24.1114 28.6216C23.6439 28.8812 23.116 29.0115 22.5816 28.9992V28.9992ZM11.4374 17.1104C13.1258 20.125 15.2824 22.8512 17.8261 25.1866C20.4424 27.442 22.5177 27.9269 23.4099 27.4012C24.3405 26.8592 25.0269 24.647 24.3196 21.0675C23.5447 17.812 22.2604 14.6999 20.5145 11.8466C18.9253 8.97599 16.9069 6.36597 14.5294 4.10725C11.7096 1.59894 9.4226 1.0383 8.49081 1.57913C8.20039 1.8156 7.96206 2.10984 7.79087 2.44326C7.61968 2.77669 7.51934 3.14206 7.4962 3.51631C7.31125 4.90111 7.3715 6.30774 7.67419 7.67157C8.41904 10.9994 9.68985 14.1867 11.4386 17.1127L11.4374 17.1104Z" fill="#00D8FF"/>
</svg>
