<svg width="37" height="24" viewBox="0 0 37 24" fill="none" xmlns="http://www.w3.org/2000/svg">
<path d="M18.5 0C13.5667 0 10.4833 2.6212 9.25 7.86345C11.1 5.24225 13.2583 4.25932 15.725 4.91466C17.1323 5.28848 18.1382 6.37354 19.2517 7.57441C21.0656 9.5309 23.1647 11.7952 27.75 11.7952C32.6833 11.7952 35.7667 9.17398 37 3.93173C35.15 6.55293 32.9917 7.53586 30.525 6.88052C29.1177 6.5067 28.1118 5.42164 26.9983 4.22077C25.1844 2.26428 23.0853 0 18.5 0ZM9.25 11.7952C4.31672 11.7952 1.23329 14.4164 0 19.6586C1.85 17.0374 4.00829 16.0545 6.475 16.7098C7.8823 17.0837 8.88824 18.1687 10.0017 19.3696C11.8156 21.3261 13.9147 23.5904 18.5 23.5904C23.4333 23.5904 26.5167 20.9692 27.75 15.7269C25.9 18.3481 23.7417 19.331 21.275 18.6757C19.8677 18.3019 18.8618 17.2168 17.7483 16.0159C15.9344 14.0595 13.8353 11.7952 9.25 11.7952Z" fill="url(#paint0_linear_110_218)"/>
<defs>
<linearGradient id="paint0_linear_110_218" x1="-1.02786" y1="7.54892" x2="31.8666" y2="25.3975" gradientUnits="userSpaceOnUse">
<stop stop-color="#2298BD"/>
<stop offset="1" stop-color="#0ED7B5"/>
</linearGradient>
</defs>
</svg>
